<svg width="23" height="23" viewBox="0 0 23 23" fill="none" xmlns="http://www.w3.org/2000/svg">
<path d="M16.869 13.8115C16.638 13.6966 15.1359 13.0075 14.9048 12.8926C14.6738 12.7778 14.4427 12.7778 14.2116 13.0075C14.0865 13.1318 13.8938 13.3907 13.7066 13.6385C13.4405 13.9908 13.1049 14.4674 12.7096 14.2709V14.2709C11.9008 13.9263 11.092 13.4669 10.3987 12.8926C9.82102 12.3184 9.24331 11.6292 8.78115 10.9401C8.6656 10.7104 8.78115 10.4806 8.89669 10.3658C8.98962 10.2734 9.08256 10.1067 9.23562 9.98526C9.31166 9.92491 9.39995 9.8688 9.45345 9.78779V9.78779C9.58624 9.58675 9.73649 9.32203 9.65611 9.0949C9.64168 9.05412 9.61962 9.01703 9.58994 8.98752C9.52433 8.9223 9.30974 8.44978 9.09419 7.94839C8.80193 7.26854 8.8279 6.11611 8.0879 6.11611V6.11611H7.51019C7.27911 6.11611 6.93248 6.34582 6.81694 6.46067C6.12369 7.14981 5.77707 7.95381 5.77707 8.87266C5.89261 9.90637 6.23923 10.9401 6.93248 11.8589C8.20344 13.6966 9.82102 15.1898 11.7852 16.1086C11.8967 16.1529 12.0039 16.1973 12.1085 16.2408C12.9501 16.5911 13.84 16.9313 14.749 16.8608C14.9104 16.8482 15.0773 16.8266 15.2515 16.7978C16.0603 16.6829 16.7535 16.1086 17.2157 15.4195C17.3613 15.1299 17.4152 14.8404 17.4061 14.5508C17.396 14.2235 17.1623 13.9573 16.869 13.8115V13.8115ZM19.7576 3.35955C15.2515 -1.11985 7.97236 -1.11985 3.46624 3.35955C0.0513473 6.7542 -0.800891 11.8145 1.0916 16.0971C1.39444 16.7824 1.50553 17.5481 1.30609 18.2703V18.2703C0.726487 20.3692 2.63977 22.3068 4.74584 21.7538L5.00026 21.687C5.72268 21.4973 6.484 21.6012 7.17399 21.8871C8.59453 22.4759 10.0743 22.7703 11.5541 22.7703C17.9089 22.7703 22.9927 17.7166 22.9927 11.3995C23.1083 8.41323 21.8373 5.54182 19.7576 3.35955ZM16.638 19.4395C15.1359 20.3583 13.4028 20.9326 11.5541 20.9326C9.82102 20.9326 8.20344 20.4732 6.7014 19.6692V19.6692C6.48072 19.5229 6.20842 19.477 5.95199 19.5428L5.50376 19.6578C4.28284 19.971 3.17685 18.8528 3.50343 17.6354L3.58983 17.3133C3.65813 17.0587 3.61308 16.787 3.46624 16.568V16.568C0.693248 11.9738 2.07974 6.23096 6.58586 3.35955C11.092 0.48814 16.869 1.98127 19.642 6.34582C22.415 10.8252 21.1441 16.6829 16.638 19.4395Z" fill="#ECECEC"/>
</svg>
