<svg width="68" height="68" viewBox="0 0 68 68" fill="none" xmlns="http://www.w3.org/2000/svg">
<path d="M29.4831 0.0842374C13.2253 0.0842374 0 13.3095 0 29.5673C0 45.8251 13.2253 59.0504 29.4831 59.0504C34.4531 59.0504 39.3389 57.8711 43.4665 55.5967C43.7971 55.9945 44.1637 56.3611 44.5616 56.6917L52.9853 65.1155C53.7631 65.9907 54.7116 66.6977 55.7726 67.1931C56.8335 67.6885 57.9846 67.9618 59.155 67.9963C60.3254 68.0307 61.4905 67.8256 62.5787 67.3935C63.667 66.9614 64.6554 66.3114 65.4834 65.4834C66.3114 64.6554 66.9614 63.667 67.3935 62.5787C67.8256 61.4905 68.0307 60.3254 67.9963 59.155C67.9618 57.9846 67.6885 56.8335 67.1931 55.7726C66.6977 54.7116 65.9907 53.7631 65.1155 52.9853L56.6918 44.5616C56.2814 44.1511 55.8298 43.7841 55.344 43.4665C57.6184 39.3389 59.0504 34.5373 59.0504 29.4831C59.0504 13.2253 45.8251 0 29.5673 0L29.4831 0.0842374ZM29.4831 8.50797C41.1921 8.50797 50.5424 17.8583 50.5424 29.5673C50.5424 35.127 48.5207 40.2655 44.9828 44.0561C44.8985 44.1404 44.8143 44.2246 44.73 44.3089C44.3322 44.6395 43.9656 45.0061 43.635 45.4039C39.9285 48.7734 34.8743 50.7109 29.3988 50.7109C17.6898 50.7109 8.3395 41.3605 8.3395 29.6516C8.3395 17.9426 17.6898 8.59221 29.3988 8.59221L29.4831 8.50797Z" fill="black"/>
</svg>
