<svg width="74" height="74" viewBox="0 0 74 74" fill="none" xmlns="http://www.w3.org/2000/svg">
<path d="M47.0678 0.0280076C45.0671 0.238602 43.1718 1.60746 42.1188 3.60811C40.7499 6.34583 30.6414 26.6682 28.6408 28.6688C26.6401 30.6694 24.0077 31.6171 21.0594 31.6171V73.7359H57.9134C60.1246 73.7359 62.0199 72.3671 62.8623 70.4717C62.8623 70.4717 73.7079 39.8303 73.7079 36.882C73.7079 33.9336 71.3914 31.6171 68.4431 31.6171H52.6485C49.7002 31.6171 47.3837 28.9847 47.3837 26.3523C47.3837 23.7198 51.4902 9.71533 52.3326 6.97761C53.175 4.23989 51.8061 1.29157 49.0684 0.343899C48.3313 0.133305 47.8048 -0.0772895 47.0678 0.0280076ZM0 31.6171V73.7359H10.5297V31.6171H0Z" fill="black"/>
</svg>
