<svg width="34" height="28" viewBox="0 0 34 28" fill="none" xmlns="http://www.w3.org/2000/svg">
<path d="M0 2C0 1.46957 0.199007 0.96086 0.553243 0.585787C0.907478 0.210714 1.38792 0 1.88889 0H32.1111C32.6121 0 33.0925 0.210714 33.4468 0.585787C33.801 0.96086 34 1.46957 34 2C34 2.53043 33.801 3.03914 33.4468 3.41421C33.0925 3.78929 32.6121 4 32.1111 4H1.88889C1.38792 4 0.907478 3.78929 0.553243 3.41421C0.199007 3.03914 0 2.53043 0 2ZM0 14C0 13.4696 0.199007 12.9609 0.553243 12.5858C0.907478 12.2107 1.38792 12 1.88889 12H32.1111C32.6121 12 33.0925 12.2107 33.4468 12.5858C33.801 12.9609 34 13.4696 34 14C34 14.5304 33.801 15.0391 33.4468 15.4142C33.0925 15.7893 32.6121 16 32.1111 16H1.88889C1.38792 16 0.907478 15.7893 0.553243 15.4142C0.199007 15.0391 0 14.5304 0 14ZM1.88889 24C1.38792 24 0.907478 24.2107 0.553243 24.5858C0.199007 24.9609 0 25.4696 0 26C0 26.5304 0.199007 27.0391 0.553243 27.4142C0.907478 27.7893 1.38792 28 1.88889 28H32.1111C32.6121 28 33.0925 27.7893 33.4468 27.4142C33.801 27.0391 34 26.5304 34 26C34 25.4696 33.801 24.9609 33.4468 24.5858C33.0925 24.2107 32.6121 24 32.1111 24H1.88889Z" fill="#0E1424"/>
</svg>
